<svg data-test="landing-page-footer-svg-app-store" aria-label="App Store Icon" viewBox="0 0 136 40" fill="none" xmlns="http://www.w3.org/2000/svg"><path d="M134.591 35.2767C134.591 37.3943 132.874 39.1068 130.761 39.1068H130.757H5.21423C3.09659 39.1111 1.37545 37.3943 1.37109 35.2767V4.72767C1.37545 2.61003 3.09223 0.89325 5.21423 0.89325H130.752C132.87 0.89325 134.587 2.61003 134.587 4.72767L134.591 35.2767Z" fill="white"></path><path d="M130.757 40H5.21444C2.60442 40 0.486779 37.8867 0.482422 35.2767V4.72767C0.486779 2.11765 2.60442 0.0043573 5.21444 0H130.753C133.363 0.0043573 135.48 2.11765 135.485 4.72767V35.281C135.489 37.8824 133.363 40 130.757 40Z" fill="#A6A5A5"></path><path d="M134.591 35.2767C134.591 37.3943 132.874 39.1068 130.761 39.1068H130.757H5.21423C3.09659 39.1111 1.37545 37.3943 1.37109 35.2767V4.72767C1.37545 2.61003 3.09223 0.89325 5.21423 0.89325H130.752C132.87 0.89325 134.587 2.61003 134.587 4.72767L134.591 35.2767Z"></path><path opacity="0.1" d="M130.757 0H63.5153L89.8551 40H130.761C133.371 39.9956 135.489 37.8824 135.493 35.2767V4.72767C135.485 2.11765 133.367 0.0043573 130.757 0Z" fill="white"></path><path d="M31.5931 20.3617C31.5626 17.207 34.177 15.6732 34.2946 15.6035C32.8175 13.4467 30.5255 13.1547 29.7194 13.1286C27.7935 12.9281 25.9286 14.2789 24.9482 14.2789C23.946 14.2789 22.4384 13.146 20.8088 13.1809C18.7129 13.2114 16.7565 14.427 15.6802 16.3094C13.4624 20.1482 15.1181 25.7865 17.2401 28.8889C18.3033 30.4096 19.5451 32.1046 21.1704 32.0436C22.7608 31.9782 23.3534 31.0327 25.275 31.0327C27.1748 31.0327 27.7325 32.0436 29.3926 32.0087C31.1007 31.9826 32.1726 30.4837 33.2009 28.9499C34.4297 27.2114 34.9221 25.4946 34.9438 25.4074C34.9003 25.39 31.6236 24.1395 31.5931 20.3617ZM28.4602 11.0894C29.3142 10.0218 29.9024 8.56648 29.7369 7.08936C28.4994 7.146 26.9526 7.94339 26.0593 8.98914C25.2706 9.91288 24.5648 11.4205 24.7478 12.841C26.1377 12.9456 27.5669 12.1395 28.4602 11.0894Z" fill="white"></path><path d="M54.6259 30.6973H52.4037L51.188 26.8715H46.9571L45.798 30.6973H43.6324L47.8242 17.6776H50.4124L54.6259 30.6973ZM50.8176 25.2681L49.7152 21.8694C49.5976 21.5208 49.3797 20.706 49.0573 19.4162H49.0181C48.8873 19.9696 48.6825 20.7888 48.3993 21.8694L47.3187 25.2681H50.8176ZM65.3884 25.8868C65.3884 27.4816 64.9571 28.7452 64.0856 29.6733C63.31 30.4968 62.3427 30.9108 61.1924 30.9108C59.9505 30.9108 59.0529 30.4663 58.5126 29.5774V34.5012H56.4255V24.3922C56.4255 23.3901 56.3993 22.3617 56.347 21.3073H58.1815L58.2991 22.7975H58.3383C59.0355 21.6776 60.09 21.1156 61.5061 21.1156C62.6128 21.1156 63.5366 21.5513 64.2773 22.4271C65.0181 23.3029 65.3884 24.4576 65.3884 25.8868ZM63.2621 25.9609C63.2621 25.0458 63.0573 24.292 62.6433 23.6994C62.1902 23.0807 61.5845 22.7713 60.8263 22.7713C60.3122 22.7713 59.846 22.9456 59.4277 23.2811C59.0094 23.6254 58.7348 24.0698 58.6085 24.6232C58.5518 24.8323 58.517 25.0415 58.5126 25.2593V26.8236C58.5126 27.5034 58.7218 28.0829 59.1401 28.5535C59.5584 29.0241 60.103 29.2593 60.7741 29.2593C61.5584 29.2593 62.1727 28.9543 62.6085 28.353C63.0442 27.7517 63.2621 26.9543 63.2621 25.9609ZM76.1858 25.8868C76.1858 27.4816 75.7545 28.7452 74.883 29.6733C74.103 30.4968 73.1401 30.9108 71.9854 30.9108C70.7435 30.9108 69.8459 30.4663 69.3056 29.5774V34.5012H67.2185V24.3922C67.2185 23.3901 67.1924 22.3617 67.1401 21.3073H68.9745L69.0921 22.7975H69.1314C69.8242 21.6776 70.883 21.1156 72.2991 21.1156C73.4059 21.1156 74.3296 21.5513 75.0704 22.4271C75.8154 23.3029 76.1858 24.4576 76.1858 25.8868ZM74.0595 25.9609C74.0595 25.0458 73.8547 24.292 73.4407 23.6994C72.9876 23.0807 72.3863 22.7713 71.6281 22.7713C71.1139 22.7713 70.6477 22.9456 70.225 23.2811C69.8067 23.6254 69.5322 24.0698 69.4059 24.6232C69.3405 24.8803 69.31 25.0938 69.31 25.2593V26.8236C69.31 27.5034 69.5192 28.0829 69.9375 28.5535C70.3558 29.0241 70.9004 29.2593 71.5714 29.2593C72.3601 29.2593 72.9701 28.9543 73.4059 28.353C73.8416 27.7517 74.0595 26.9543 74.0595 25.9609ZM88.2642 27.0415C88.2642 28.1482 87.8764 29.0502 87.1052 29.7474C86.2599 30.5055 85.0747 30.889 83.5584 30.889C82.1553 30.889 81.0355 30.6188 80.1858 30.0785L80.6695 28.34C81.5845 28.8803 82.5911 29.1504 83.6847 29.1504C84.4734 29.1504 85.0834 28.9718 85.5191 28.6188C85.9549 28.2659 86.1771 27.7909 86.1771 27.1983C86.1771 26.6711 85.9941 26.2267 85.6368 25.865C85.2751 25.5034 84.6782 25.1678 83.8416 24.8628C81.5627 24.0132 80.4211 22.7713 80.4211 21.133C80.4211 20.0654 80.8263 19.1896 81.6281 18.5055C82.4342 17.8214 83.4974 17.4816 84.8263 17.4816C86.0115 17.4816 87.0006 17.6864 87.7806 18.1003L87.2577 19.7996C86.5213 19.3988 85.6891 19.2027 84.7566 19.2027C84.0202 19.2027 83.4451 19.3857 83.0311 19.743C82.6826 20.0654 82.5083 20.4576 82.5083 20.9238C82.5083 21.438 82.7087 21.865 83.1096 22.2005C83.4582 22.5099 84.09 22.8454 85.0006 23.2027C86.1204 23.6559 86.944 24.1831 87.4756 24.7844C87.9984 25.3901 88.2642 26.1439 88.2642 27.0415ZM95.1793 22.8715H92.8786V27.4293C92.8786 28.5883 93.2838 29.1678 94.0943 29.1678C94.469 29.1678 94.7784 29.1373 95.0224 29.072L95.0791 30.658C94.6695 30.8105 94.1248 30.889 93.4582 30.889C92.6346 30.889 91.9897 30.6363 91.5235 30.1352C91.0616 29.6341 90.8263 28.7888 90.8263 27.6036V22.8672H89.4582V21.3029H90.8263V19.5861L92.8743 18.9674V21.3029H95.1749V22.8715H95.1793ZM105.532 25.926C105.532 27.3683 105.118 28.5535 104.295 29.4816C103.432 30.4358 102.286 30.9108 100.857 30.9108C99.4756 30.9108 98.3819 30.4532 97.5627 29.5426C96.7435 28.6275 96.334 27.4772 96.334 26.0872C96.334 24.6319 96.7566 23.4424 97.5976 22.5142C98.4429 21.5861 99.5801 21.1243 101.009 21.1243C102.386 21.1243 103.493 21.5818 104.33 22.4968C105.136 23.3726 105.532 24.5186 105.532 25.926ZM103.371 25.9739C103.371 25.1156 103.184 24.3748 102.813 23.7604C102.378 23.0153 101.75 22.6406 100.94 22.6406C100.103 22.6406 99.4625 23.0153 99.0268 23.7604C98.652 24.3792 98.469 25.1286 98.469 26.0132C98.469 26.8759 98.6564 27.6123 99.0268 28.231C99.4799 28.9761 100.107 29.3508 100.922 29.3508C101.72 29.3508 102.347 28.9718 102.796 28.2136C103.179 27.5774 103.371 26.8323 103.371 25.9739ZM112.317 23.1417C112.099 23.1025 111.881 23.0851 111.659 23.0851C110.927 23.0851 110.356 23.3596 109.959 23.9173C109.611 24.4053 109.441 25.0241 109.441 25.7691V30.6929H107.354V24.2659C107.354 23.2811 107.336 22.2964 107.293 21.3116H109.11L109.188 23.1068H109.245C109.467 22.4881 109.811 21.9914 110.286 21.6166C110.722 21.2898 111.249 21.1156 111.794 21.1156C111.985 21.1156 112.16 21.1286 112.317 21.1548V23.1417ZM121.65 25.5556C121.654 25.8737 121.628 26.1874 121.571 26.5012H115.314C115.336 27.4293 115.641 28.1395 116.221 28.6275C116.748 29.0633 117.432 29.2811 118.269 29.2811C119.197 29.2811 120.042 29.133 120.8 28.8367L121.127 30.2833C120.238 30.6711 119.188 30.8628 117.981 30.8628C116.526 30.8628 115.384 30.4358 114.552 29.5774C113.724 28.7234 113.306 27.5731 113.306 26.1308C113.306 24.7147 113.693 23.5382 114.465 22.597C115.275 21.5949 116.369 21.0894 117.746 21.0894C119.101 21.0894 120.125 21.5905 120.818 22.597C121.371 23.3988 121.65 24.3879 121.65 25.5556ZM119.659 25.0153C119.672 24.3966 119.537 23.865 119.253 23.4119C118.892 22.8323 118.338 22.5404 117.593 22.5404C116.909 22.5404 116.356 22.8236 115.933 23.3901C115.584 23.8432 115.38 24.3835 115.314 25.011L119.659 25.0153Z" fill="white"></path><path d="M46.3521 14.2047C45.7725 14.2047 45.2715 14.1742 44.8531 14.1263V7.83438C45.437 7.74287 46.0296 7.6993 46.6178 7.6993C49.01 7.6993 50.1124 8.87577 50.1124 10.793C50.1124 13.0065 48.8096 14.2047 46.3521 14.2047ZM46.7006 8.5054C46.3782 8.5054 46.1037 8.52283 45.8728 8.57076V13.3551C45.9948 13.3725 46.2344 13.3856 46.5656 13.3856C48.1342 13.3856 49.0274 12.4923 49.0274 10.8235C49.0274 9.33329 48.2213 8.5054 46.7006 8.5054ZM53.546 14.2527C52.1996 14.2527 51.3237 13.2461 51.3237 11.878C51.3237 10.4531 52.217 9.43786 53.6244 9.43786C54.9534 9.43786 55.8466 10.3965 55.8466 11.8039C55.8466 13.2461 54.9229 14.2527 53.546 14.2527ZM53.5852 10.1873C52.8444 10.1873 52.3695 10.8801 52.3695 11.8474C52.3695 12.7973 52.8531 13.4901 53.5765 13.4901C54.2998 13.4901 54.7834 12.7494 54.7834 11.83C54.7834 10.8888 54.3085 10.1873 53.5852 10.1873ZM63.5372 9.53372L62.095 14.1481H61.1538L60.5569 12.1437C60.4087 11.6557 60.2823 11.1546 60.1865 10.6535H60.1691C60.095 11.1546 59.9512 11.6601 59.7987 12.1437L59.1625 14.1481H58.2126L56.8532 9.53372H57.9076L58.4305 11.7254C58.5525 12.2483 58.6571 12.7407 58.7442 13.2069H58.7617C58.8357 12.8191 58.9621 12.3311 59.1407 11.7342L59.7943 9.53372H60.6309L61.2584 11.6906C61.4109 12.2135 61.5329 12.7276 61.6287 13.2113H61.6549C61.7202 12.7363 61.8248 12.2309 61.9686 11.6906L62.5307 9.53372H63.5372ZM68.8488 14.1481H67.8248V11.4989C67.8248 10.684 67.5111 10.2745 66.8924 10.2745C66.2867 10.2745 65.8684 10.7973 65.8684 11.403V14.1481H64.8444V10.8496C64.8444 10.44 64.8357 10.0043 64.8052 9.52937H65.7072L65.7551 10.2396H65.7856C66.0601 9.74723 66.6222 9.43351 67.2497 9.43351C68.217 9.43351 68.8531 10.1742 68.8531 11.3812L68.8488 14.1481ZM71.6767 14.1481H70.6484V7.41608H71.6767V14.1481ZM75.4152 14.2527C74.0688 14.2527 73.193 13.2461 73.193 11.878C73.193 10.4531 74.0863 9.43786 75.4893 9.43786C76.8183 9.43786 77.7115 10.3965 77.7115 11.8039C77.7159 13.2461 76.7921 14.2527 75.4152 14.2527ZM75.4545 10.1873C74.7137 10.1873 74.2388 10.8801 74.2388 11.8474C74.2388 12.7973 74.7224 13.4901 75.4414 13.4901C76.1647 13.4901 76.6484 12.7494 76.6484 11.83C76.6484 10.8888 76.1778 10.1873 75.4545 10.1873ZM81.7551 14.1481L81.681 13.6165H81.6549C81.3412 14.0435 80.8837 14.2527 80.3041 14.2527C79.4762 14.2527 78.888 13.6732 78.888 12.8932C78.888 11.7559 79.8771 11.1634 81.5852 11.1634V11.0762C81.5852 10.4705 81.2627 10.1655 80.6266 10.1655C80.1734 10.1655 79.7725 10.2788 79.4196 10.5098L79.2104 9.83438C79.6375 9.56858 80.1691 9.43351 80.7965 9.43351C82.0035 9.43351 82.6091 10.0697 82.6091 11.342V13.0413C82.6091 13.5076 82.6309 13.8692 82.6745 14.1437L81.7551 14.1481ZM81.6157 11.8474C80.4784 11.8474 79.9032 12.122 79.9032 12.7799C79.9032 13.2636 80.1996 13.4989 80.6048 13.4989C81.1277 13.4989 81.6113 13.1024 81.6113 12.5577V11.8474H81.6157ZM87.5939 14.1481L87.546 13.4074H87.5155C87.2192 13.9651 86.7268 14.2527 86.034 14.2527C84.9229 14.2527 84.0993 13.2723 84.0993 11.8997C84.0993 10.4575 84.9534 9.44222 86.1211 9.44222C86.7399 9.44222 87.1756 9.65137 87.4239 10.0697H87.4457V7.42043H88.4741V12.9063C88.4741 13.3507 88.4828 13.769 88.5133 14.1481H87.5939ZM87.4457 11.4335C87.4457 10.7886 87.0187 10.2352 86.3651 10.2352C85.6026 10.2352 85.1407 10.9106 85.1407 11.8562C85.1407 12.7886 85.6244 13.4248 86.3433 13.4248C86.9882 13.4248 87.4457 12.8627 87.4457 12.2004V11.4335ZM94.9795 14.2527C93.6331 14.2527 92.7573 13.2461 92.7573 11.878C92.7573 10.4531 93.6505 9.43786 95.0536 9.43786C96.3826 9.43786 97.2758 10.3965 97.2758 11.8039C97.2802 13.2461 96.3564 14.2527 94.9795 14.2527ZM95.0187 10.1873C94.278 10.1873 93.803 10.8801 93.803 11.8474C93.803 12.7973 94.2867 13.4901 95.0057 13.4901C95.729 13.4901 96.2126 12.7494 96.2126 11.83C96.2126 10.8888 95.742 10.1873 95.0187 10.1873ZM102.792 14.1481H101.764V11.4989C101.764 10.684 101.45 10.2745 100.831 10.2745C100.226 10.2745 99.8074 10.7973 99.8074 11.403V14.1481H98.7791V10.8496C98.7791 10.44 98.7704 10.0043 98.7399 9.52937H99.6418L99.6898 10.2396H99.7203C99.9948 9.74723 100.557 9.43351 101.184 9.43351C102.152 9.43351 102.792 10.1742 102.792 11.3812V14.1481ZM109.694 10.3006H108.566V12.5403C108.566 13.1111 108.762 13.3943 109.163 13.3943C109.346 13.3943 109.494 13.3769 109.616 13.3464L109.646 14.1263C109.446 14.2047 109.18 14.2396 108.849 14.2396C108.038 14.2396 107.559 13.7952 107.559 12.6274V10.3006H106.884V9.53372H107.559V8.68841L108.566 8.3834V9.53372H109.694V10.3006ZM115.123 14.1481H114.099V11.5163C114.099 10.6928 113.786 10.2745 113.167 10.2745C112.635 10.2745 112.139 10.6361 112.139 11.3681V14.1481H111.115V7.41608H112.139V10.1873H112.16C112.483 9.68623 112.949 9.43786 113.546 9.43786C114.522 9.43786 115.119 10.196 115.119 11.403L115.123 14.1481ZM120.683 12.0871H117.607C117.624 12.9586 118.204 13.4553 119.062 13.4553C119.515 13.4553 119.938 13.3769 120.304 13.2374L120.465 13.9477C120.03 14.1394 119.515 14.2309 118.919 14.2309C117.476 14.2309 116.622 13.3202 116.622 11.9041C116.622 10.488 117.498 9.42479 118.805 9.42479C119.986 9.42479 120.722 10.3006 120.722 11.6165C120.727 11.7777 120.714 11.9346 120.683 12.0871ZM119.742 11.3551C119.742 10.6448 119.385 10.1394 118.727 10.1394C118.139 10.1394 117.672 10.6535 117.607 11.3551H119.742Z" fill="white"></path></svg>