<svg aria-label="FacebookDark" role="img" class="mho0kh-0 flkQAh icon" viewBox="0 0 44 44" preserveAspectRatio="xMidYMid meet" version="1.1" xmlns="http://www.w3.org/2000/svg"><path d="M0 0h44v44H0z" role="presentation" class="sc-giAqHp ezJeZa"></path><path d="M44 22.134C44 9.91 34.15 0 22 0S0 9.91 0 22.134C0 33.182 8.045 42.34 18.563 44V28.533h-5.586v-6.399h5.585v-4.876c0-5.547 3.285-8.612 8.31-8.612 2.407 0 4.925.433 4.925.433v5.447h-2.774c-2.733 0-3.585 1.706-3.585 3.458v4.15h6.101l-.975 6.399h-5.127V44C35.956 42.34 44 33.182 44 22.134Z" role="presentation" class="sc-giAqHp kaLuSD"></path></svg>