<svg data-test="landing-page-footer-svg-google-play" aria-label="Google Play Icon" viewBox="0 0 136 40" fill="none" xmlns="http://www.w3.org/2000/svg"><path d="M134.602 35.2767C134.602 37.3943 132.886 39.1068 130.772 39.1068H130.768H5.22552C3.10788 39.1111 1.38674 37.3987 1.38239 35.2767V4.72767C1.38674 2.61003 3.10352 0.89325 5.22552 0.89325H130.764C132.881 0.89325 134.598 2.61003 134.598 4.72767L134.602 35.2767Z" fill="white"></path><path d="M130.768 40H5.22543C2.61541 40 0.497766 37.8867 0.493408 35.2767V4.72767C0.497766 2.11765 2.61541 0.0043573 5.22543 0H130.764C133.374 0.0043573 135.491 2.11765 135.496 4.72767V35.281C135.5 37.8824 133.374 40 130.768 40Z" fill="#A6A5A5"></path><path d="M134.602 35.2767C134.602 37.3943 132.886 39.1068 130.772 39.1068H130.768H5.22552C3.10788 39.1111 1.38674 37.3987 1.38239 35.2767V4.72767C1.38674 2.61003 3.10352 0.89325 5.22552 0.89325H130.764C132.881 0.89325 134.598 2.61003 134.598 4.72767L134.602 35.2767Z"></path><path opacity="0.1" d="M130.768 0H63.5217L89.8615 40H130.768C133.378 39.9956 135.496 37.8824 135.5 35.2767V4.72767C135.491 2.11765 133.378 0.0043573 130.768 0Z" fill="white"></path><path d="M48.1971 12.0916C48.1971 12.8759 48.001 13.56 47.513 14.048C46.9248 14.6362 46.2407 14.9282 45.3605 14.9282C44.4803 14.9282 43.7962 14.6362 43.208 14.048C42.6198 13.4597 42.3278 12.7756 42.3278 11.8955C42.3278 11.0153 42.6198 10.3312 43.208 9.74297C43.7962 9.15473 44.4803 8.86279 45.3605 8.86279C45.7527 8.86279 46.1448 8.95865 46.5326 9.15473C46.9248 9.35081 47.2167 9.54689 47.4128 9.83883L46.9248 10.3268C46.5326 9.83883 46.0446 9.64275 45.3605 9.64275C44.7723 9.64275 44.1884 9.83883 43.7962 10.3268C43.3082 10.719 43.1121 11.3029 43.1121 11.987C43.1121 12.6711 43.3082 13.2593 43.7962 13.6471C44.2842 14.0393 44.7723 14.3312 45.3605 14.3312C46.0446 14.3312 46.5326 14.1351 47.0206 13.6471C47.3126 13.3552 47.5086 12.963 47.5086 12.475H45.3561V11.6907H48.1927L48.1971 12.0916ZM52.6938 9.64711H50.0533V11.5033H52.4978V12.1874H50.0533V14.0436H52.6938V14.8279H49.2734V8.96301H52.6938V9.64711ZM55.9226 14.8323H55.1383V9.64711H53.4781V8.96301H57.5827V9.64711H55.9226V14.8323ZM60.4193 14.8323V8.96301H61.2036V14.8279H60.4193V14.8323ZM64.5283 14.8323H63.7439V9.64711H62.0838V8.96301H66.0925V9.64711H64.4324V14.8279H64.5283V14.8323ZM73.8137 14.048C73.2254 14.6362 72.5413 14.9282 71.6612 14.9282C70.781 14.9282 70.0969 14.6362 69.5086 14.048C68.9204 13.4597 68.6285 12.7756 68.6285 11.8955C68.6285 11.0153 68.9204 10.3312 69.5086 9.74297C70.0969 9.15473 70.781 8.86279 71.6612 8.86279C72.5413 8.86279 73.2254 9.15473 73.8137 9.74297C74.4019 10.3312 74.6938 11.0153 74.6938 11.8955C74.6938 12.7756 74.4019 13.4597 73.8137 14.048ZM70.1012 13.56C70.4934 13.9521 71.0773 14.2441 71.6655 14.2441C72.2537 14.2441 72.8376 14.048 73.2298 13.56C73.6219 13.1678 73.9139 12.5839 73.9139 11.8998C73.9139 11.2157 73.7178 10.6275 73.2298 10.2397C72.8376 9.84754 72.2537 9.5556 71.6655 9.5556C71.0773 9.5556 70.4934 9.75168 70.1012 10.2397C69.7091 10.6319 69.4171 11.2157 69.4171 11.8998C69.4171 12.5839 69.6089 13.1678 70.1012 13.56ZM75.7701 14.8323V8.96301H76.6503L79.4869 13.56V8.96301H80.2712V14.8279H79.4869L76.4542 10.0349V14.8279H75.7701V14.8323Z" fill="white"></path><path d="M68.4366 22.1613C66.088 22.1613 64.2318 23.9216 64.2318 26.366C64.2318 28.7146 66.088 30.5708 68.4366 30.5708C70.7851 30.5708 72.6413 28.8105 72.6413 26.366C72.6413 23.8257 70.7851 22.1613 68.4366 22.1613ZM68.4366 28.8105C67.1642 28.8105 66.088 27.7342 66.088 26.2702C66.088 24.8018 67.1642 23.7299 68.4366 23.7299C69.7089 23.7299 70.7851 24.7059 70.7851 26.2702C70.7851 27.7342 69.7089 28.8105 68.4366 28.8105ZM59.3429 22.1613C56.9943 22.1613 55.1381 23.9216 55.1381 26.366C55.1381 28.7146 56.9943 30.5708 59.3429 30.5708C61.6915 30.5708 63.5477 28.8105 63.5477 26.366C63.5477 23.8257 61.6915 22.1613 59.3429 22.1613ZM59.3429 28.8105C58.0705 28.8105 56.9943 27.7342 56.9943 26.2702C56.9943 24.8018 58.0705 23.7299 59.3429 23.7299C60.6152 23.7299 61.6915 24.7059 61.6915 26.2702C61.6915 27.7342 60.6152 28.8105 59.3429 28.8105ZM48.4888 23.4336V25.1939H52.6936C52.5978 26.17 52.2056 26.9543 51.7176 27.4423C51.1294 28.0305 50.1533 28.7146 48.4888 28.7146C45.8483 28.7146 43.8919 26.6623 43.8919 24.0218C43.8919 21.3813 45.9442 19.329 48.4888 19.329C49.857 19.329 50.9333 19.9172 51.7176 20.6013L52.9899 19.329C51.9137 18.353 50.5455 17.5687 48.5891 17.5687C45.0684 17.5687 42.04 20.5011 42.04 24.0218C42.04 27.5425 45.0727 30.475 48.5891 30.475C50.5455 30.475 51.9137 29.8867 53.0858 28.6188C54.2579 27.4467 54.6501 25.7822 54.6501 24.5142C54.6501 24.122 54.6501 23.7299 54.5542 23.4379L48.4888 23.4336ZM92.881 24.8018C92.4888 23.8257 91.5128 22.1613 89.3603 22.1613C87.2078 22.1613 85.4474 23.8214 85.4474 26.366C85.4474 28.7146 87.2078 30.5708 89.552 30.5708C91.4082 30.5708 92.5847 29.3987 92.9725 28.7146L91.6043 27.7386C91.1163 28.4227 90.5281 28.9107 89.552 28.9107C88.576 28.9107 87.9877 28.5186 87.4997 27.6384L93.0727 25.2898L92.881 24.8018ZM87.2122 26.17C87.2122 24.6057 88.4845 23.7255 89.3647 23.7255C90.0488 23.7255 90.7328 24.1177 90.9289 24.6057L87.2122 26.17ZM82.6152 30.1787H84.4714V17.9565H82.6152V30.1787ZM79.6827 23.0414C79.1947 22.5534 78.4104 22.0654 77.4344 22.0654C75.3821 22.0654 73.4257 23.9216 73.4257 26.2702C73.4257 28.6188 75.2819 30.3748 77.4344 30.3748C78.4104 30.3748 79.1947 29.8867 79.5869 29.3987H79.6827V29.987C79.6827 31.5512 78.8026 32.4314 77.4344 32.4314C76.3581 32.4314 75.5782 31.6471 75.3821 30.963L73.8178 31.6471C74.3058 32.7233 75.4779 34.0915 77.5346 34.0915C79.6871 34.0915 81.4474 32.8192 81.4474 29.7909V22.3573H79.6871L79.6827 23.0414ZM77.5302 28.8105C76.2579 28.8105 75.1817 27.7342 75.1817 26.2702C75.1817 24.8061 76.2579 23.7299 77.5302 23.7299C78.8026 23.7299 79.7786 24.8061 79.7786 26.2702C79.7786 27.7342 78.8026 28.8105 77.5302 28.8105ZM101.391 17.9565H96.9899V30.1787H98.8461V25.5861H101.386C103.439 25.5861 105.395 24.1177 105.395 21.7735C105.395 19.4292 103.443 17.9565 101.391 17.9565ZM101.487 23.8257H98.8461V19.621H101.487C102.855 19.621 103.639 20.7931 103.639 21.6732C103.539 22.7495 102.759 23.8257 101.487 23.8257ZM112.733 22.0654C111.365 22.0654 109.996 22.6536 109.504 23.9216L111.164 24.6057C111.556 23.9216 112.14 23.7255 112.824 23.7255C113.8 23.7255 114.681 24.3138 114.781 25.2898V25.3857C114.489 25.1896 113.705 24.8976 112.925 24.8976C111.164 24.8976 109.404 25.8737 109.404 27.634C109.404 29.2942 110.872 30.3704 112.437 30.3704C113.709 30.3704 114.293 29.7822 114.785 29.1983H114.881V30.1743H116.641V25.4859C116.445 23.3377 114.785 22.0654 112.733 22.0654ZM112.537 28.8105C111.949 28.8105 111.068 28.5186 111.068 27.7342C111.068 26.7582 112.145 26.4619 113.025 26.4619C113.809 26.4619 114.197 26.658 114.685 26.8541C114.493 28.0305 113.513 28.8105 112.537 28.8105ZM122.803 22.3573L120.75 27.6384H120.654L118.502 22.3573H116.545L119.774 29.7865L117.918 33.8911H119.774L124.759 22.353H122.803V22.3573ZM106.376 30.1787H108.232V17.9565H106.376V30.1787Z" fill="white"></path><path d="M15.025 8.11768C14.733 8.40961 14.6328 8.90199 14.6328 9.48587V31.0937C14.6328 31.6819 14.8289 32.17 15.1208 32.4619L15.2167 32.5578L27.3431 20.4358V20.2397L15.025 8.11768Z" fill="url(#paint0_linear_3823:6512)"></path><path d="M31.256 24.5447L27.2473 20.536V20.2441L31.256 16.2354L31.3518 16.3312L36.1449 19.0676C37.513 19.8519 37.513 21.1199 36.1449 21.9042L31.256 24.5447Z" fill="url(#paint1_linear_3823:6512)"></path><path d="M31.3518 24.4445L27.2472 20.34L15.025 32.5622C15.513 33.0502 16.1971 33.0502 17.0773 32.658L31.3518 24.4445Z" fill="url(#paint2_linear_3823:6512)"></path><path d="M31.3518 16.2309L17.0773 8.11761C16.1971 7.62959 15.513 7.72545 15.025 8.21347L27.2472 20.3398L31.3518 16.2309Z" fill="url(#paint3_linear_3823:6512)"></path><defs><linearGradient id="paint0_linear_3823:6512" x1="20.9875" y1="8.04648" x2="20.9875" y2="32.3799" gradientUnits="userSpaceOnUse"><stop stop-color="#267CAF"></stop><stop offset="0.286" stop-color="#4A92B4"></stop><stop offset="0.767" stop-color="#79BCBA"></stop><stop offset="1" stop-color="#88CEBC"></stop></linearGradient><linearGradient id="paint1_linear_3823:6512" x1="33.5724" y1="17.4026" x2="30.6048" y2="24.1149" gradientUnits="userSpaceOnUse"><stop stop-color="#F48879"></stop><stop offset="0.119" stop-color="#F5907A"></stop><stop offset="0.713" stop-color="#FBB777"></stop><stop offset="1" stop-color="#FDC874"></stop></linearGradient><linearGradient id="paint2_linear_3823:6512" x1="29.1589" y1="22.506" x2="15.8062" y2="33.3042" gradientUnits="userSpaceOnUse"><stop stop-color="#EB413D"></stop><stop offset="0.167" stop-color="#D94452"></stop><stop offset="0.575" stop-color="#AF487A"></stop><stop offset="0.862" stop-color="#954B92"></stop><stop offset="1" stop-color="#894A9C"></stop></linearGradient><linearGradient id="paint3_linear_3823:6512" x1="16.7539" y1="8.7065" x2="29.5261" y2="18.4598" gradientUnits="userSpaceOnUse"><stop stop-color="#54C0AC"></stop><stop offset="1" stop-color="#DDE79A"></stop></linearGradient></defs></svg>